# xmcd
#
# Track frame offsets: 
#        150
#        11755
#        25850
#        39157
#        53412
#        66480
#        81787
#        104295
#        118935
#        133302
#        144735
#        164552
#        183020
#        195227
#        211575
#
# Disc length: 3106 seconds
#
# Revision: 0
# Processed by: cddbd v1.5.2PL0 Copyright (c) Steve Scherf et al.
# Submitted via: ExactAudioCopyFreeDBPlugin 1.0
#
DISCID=c90c200f
DTITLE=The Dean Brothers - Goldilocks and the Three Bears
DYEAR=1999
DGENRE=Country
TTITLE0=The Three Bears
TTITLE1=See You In My Dreams
TTITLE2=Sometimes She Will
TTITLE3=I Forgot To Remember
TTITLE4=Hank
TTITLE5=Hard Way
TTITLE6=Three Words
TTITLE7=You're The One
TTITLE8=Here Today
TTITLE9=No Future In The Past
TTITLE10=Cry Cry
TTITLE11=Honkytonk Angel
TTITLE12=Doctor
TTITLE13=Last Night
TTITLE14=Cry Cry Dance Mix
EXTD=
EXTT0=
EXTT1=
EXTT2=
EXTT3=
EXTT4=
EXTT5=
EXTT6=
EXTT7=
EXTT8=
EXTT9=
EXTT10=
EXTT11=
EXTT12=
EXTT13=
EXTT14=
PLAYORDER=
